#define python_width 16
#define python_height 16
static unsigned char python_bits[] = {
   0x00, 0x00, 0x00, 0x00, 0x00, 0x00, 0x00, 0x00, 0x00, 0x10, 0x00, 0x30,
   0x00, 0x78, 0x00, 0x78, 0xe0, 0x7f, 0xe0, 0x7f, 0xe0, 0x3f, 0xe0, 0x0f,
   0xf0, 0x07, 0xe0, 0x05, 0xc0, 0x03, 0x00, 0x00 };
